<svg width="21" height="19" fill="none" xmlns="http://www.w3.org/2000/svg"><path d="M19.154 9.338c2.14-2.14 2.14-5.614 0-7.733a5.486 5.486 0 00-7.755 0l-1.038 1.06-1.038-1.039C7.183-.535 3.708-.535 1.589 1.605A5.43 5.43 0 000 5.482c0 1.462.572 2.84 1.59 3.877l8.771 8.772 8.793-8.793zM1.356 5.482a3.97 3.97 0 011.208-2.881 4.062 4.062 0 012.881-1.208c1.039 0 2.077.403 2.882 1.208l2.034 2.013 2.034-2.034c1.59-1.59 4.195-1.59 5.763 0a4.055 4.055 0 011.208 2.881 3.97 3.97 0 01-1.208 2.881l-7.797 7.818-7.797-7.796C1.8 7.58 1.356 6.563 1.356 5.482z" fill="#000"/></svg>